<?xml version="1.0" encoding="UTF-8" standalone="no"?>
<svg
  xmlns="http://www.w3.org/2000/svg"
  viewBox="0 0 108 108"
  role="img"
  aria-label="PKT"
>
  <g transform="translate(0 1.65)">
    <g transform="matrix(0.19717252,0,0,0.71098643,-3.0553854,-0.34411746)">
      <path
        fill="#ffe600"
        d="m 121.988,20.371 -20.601,55.481 h 11.734 c 12.496,0 22.461,-2.047 29.945,-6.137 7.465,-4.05 12.824,-10.395 16,-18.946 3.375,-9.086 2.613,-16.406 -2.219,-22.012 -4.887,-5.609 -12.965,-8.386 -24.219,-8.386 z M 23.715,147.617 78.434,0.484 h 74.694 c 23.946,0 40.832,4.5 50.684,13.543 9.855,9.043 11.773,21.723 5.711,38.051 -4.953,13.336 -14.199,23.977 -27.656,31.832 -13.524,7.895 -29.246,11.824 -47.176,11.824 H 94.004 l -19.367,51.997 z m 276.07,0.059 -17.484,-65.895 85.996,-81.297 h 27.523 l -62.172,58.633 23.957,88.453 z M 202.863,147.621 257.59,0.484 h 52.375 l -54.727,147.137 z m 203.25,-0.129 46.649,-125.406 h -49.797 l 8.027,-21.602 h 151.965 l -8.024,21.602 h -49.797 l -46.687,125.508 z"
      />
      <path
        fill="#132755"
        d="m 28.875,133.73 h 50.973 l -4.055,10.906 H 24.824 Z m 179.152,0.016 h 52.371 l -4.051,10.89 -52.375,0.008 z m 203.196,0.004 52.375,0.004 -4.055,10.898 h -52.375 z m -115.09,0.05 57.746,0.016 2.929,10.812 -57.778,0.09 z M 112.094,24.695 91.484,80.172 h 11.734 c 12.496,0 22.461,-2.043 29.945,-6.137 7.465,-4.05 12.828,-10.39 16.004,-18.945 3.375,-9.082 2.61,-16.406 -2.223,-22.008 -4.887,-5.61 -12.96,-8.387 -24.214,-8.387 z M 15.496,147.61 68.531,4.808 h 74.703 c 23.938,0 40.824,4.5 50.676,13.543 9.855,9.04 11.777,21.727 5.715,38.05 -4.958,13.337 -14.204,23.978 -27.657,31.833 -13.523,7.894 -29.246,11.824 -47.18,11.824 H 84.102 l -17.68,47.606 z m 273.258,0.085 -16.356,-61.59 86,-81.297 h 27.523 l -62.175,58.633 22.793,84.152 Z M 194.645,147.64 247.69,4.808 h 52.372 L 247.023,147.625 Z M 397.906,147.461 442.86,26.41 h -49.797 l 8.023,-21.602 h 151.969 l -8.02,21.602 H 495.238 L 450.21,147.648 Z"
      />
      <path
        fill="#ffe600"
        d="m 20.23,134.879 h 50.942 l -4.05,10.902 H 16.176 Z m 179.149,0.016 52.375,-0.008 -4.047,10.906 h -52.375 z m 203.195,0.003 h 52.371 l -4.043,10.899 -52.375,0.004 z m -117.211,0.032 57.75,0.011 2.926,10.812 -57.778,0.09 z"
      />
    </g>
  </g>
</svg>
